<svg viewBox="0 0 128 128" xmlns="http://www.w3.org/2000/svg"><path fill="#83CD29" d="M64 3.2c-1.8 0-3.5.5-5 1.3L12.3 31.1c-3.1 1.8-5 5.1-5 8.7v53.3c0 3.6 1.9 6.9 5 8.7l46.7 26.6c3.1 1.8 6.9 1.8 10 0l46.7-26.6c3.1-1.8 5-5.1 5-8.7V39.8c0-3.6-1.9-6.9-5-8.7L69 4.5c-1.5-.8-3.2-1.3-5-1.3z"/><path fill="#fff" d="M85.3 87.4c-11.8 0-14.5-5.4-14.5-10 0-.4.3-.8.8-.8h3.5c.4 0 .7.3.8.6.5 3.6 2.1 5.4 9.4 5.4 5.8 0 8.2-1.3 8.2-4.4 0-1.8-.7-3.1-9.7-4-7.5-.7-12.2-2.4-12.2-8.5 0-5.6 4.7-8.9 12.6-8.9 8.9 0 13.3 3.1 13.8 9.7 0 .2-.1.4-.2.6-.2.1-.4.2-.6.2h-3.5c-.3 0-.7-.3-.7-.6-.8-3.6-2.8-4.8-8.8-4.8-6.5 0-7.2 2.3-7.2 4 0 2.1.9 2.7 9.4 3.8 8.4 1.1 12.4 2.7 12.4 8.6 0 6-5.1 9.5-13.9 9.5zM53.9 57.4h3.6c.4 0 .8.3.8.8v24.3c0 10.2-5.6 14.5-15.4 14.5-2.4 0-5.1-.5-7.4-1.6-.3-.2-.5-.5-.5-.9l1.6-3.1c.1-.3.5-.5.8-.4.2.1.3.1.4.2 2.1 1.2 4.4 1.7 5.5 1.7 5.9 0 7.4-2.2 7.4-8.1V58.2c0-.4.3-.8.8-.8z"/></svg>
