<svg viewBox="0 0 128 128" xmlns="http://www.w3.org/2000/svg"><path fill="#5865F2" d="M107.7 19.3A105.2 105.2 0 0081.5 11a72.5 72.5 0 00-3.3 6.8 97.7 97.7 0 00-29.2 0A72.4 72.4 0 0045.7 11a105.6 105.6 0 00-26.2 8.3C5.7 41.4.9 62.8 3.3 83.8a106.8 106.8 0 0032.6 16.7 80.3 80.3 0 007-11.5 68.7 68.7 0 01-11-5.3c.9-.7 1.8-1.4 2.7-2.1a75.3 75.3 0 0064.8 0c.9.7 1.8 1.4 2.7 2.1a69 69 0 01-11 5.3 79.8 79.8 0 007 11.5 106.3 106.3 0 0032.6-16.7c2.8-24.5-4.8-45.7-20-64.5zM43 72.3c-5.5 0-10-5.1-10-11.3s4.4-11.3 10-11.3 10.1 5.1 10 11.3c0 6.2-4.4 11.3-10 11.3zm42 0c-5.5 0-10-5.1-10-11.3s4.4-11.3 10-11.3 10.1 5.1 10 11.3c0 6.2-4.4 11.3-10 11.3z"/></svg>
