<svg viewBox="0 0 128 128" xmlns="http://www.w3.org/2000/svg"><path fill="#439934" d="M64 4.7c-1.6 2.4-3 5-4.2 7.7C52.4 27.5 48.6 43 47.3 59c-1 12.5.3 24.8 4.2 36.8 1.4 4.2 3.2 8.2 5.5 12 .7 1.1 1.3 2.3 2 3.4.4.7.9 1.7 1.5 1.7h.2c.6-.1 1-.8 1.4-1.4.8-1.2 1.5-2.5 2.2-3.8 2.3-3.8 4.1-7.8 5.5-12 3.9-12 5.2-24.3 4.2-36.8-1.3-16-5.1-31.5-12.5-46.5-1.2-2.7-2.6-5.3-4.2-7.7H64z"/><path fill="#45a538" d="M64.5 113c-.2-3.8-.5-7.5-.5-11.3 0-1.5.4-3 .8-4.5.3-1 .8-1.3 1.8-1 2.3.7 3.6 2.4 4.4 4.5 1.2 3 1.1 6.2.6 9.3-.3 1.7-.8 3.4-1.4 5-.1.3-.5.8-.7.8-.3 0-.7-.4-.8-.7-1.3-2.6-2.4-5.3-3.2-8.1-.4 2-.7 3.9-1 5.9z"/><path fill="#46a037" d="M63.5 113c.2-3.8.5-7.5.5-11.3 0-1.5-.4-3-.8-4.5-.3-1-.8-1.3-1.8-1-2.3.7-3.6 2.4-4.4 4.5-1.2 3-1.1 6.2-.6 9.3.3 1.7.8 3.4 1.4 5 .1.3.5.8.7.8.3 0 .7-.4.8-.7 1.3-2.6 2.4-5.3 3.2-8.1.4 2 .7 3.9 1 5.9z"/></svg>
