<svg fill="none" viewBox="0 0 128 128" xmlns="http://www.w3.org/2000/svg">
  <rect width="128" height="128" rx="6" fill="#3178c6"/>
  <path clip-rule="evenodd" fill-rule="evenodd" d="M74.2 99.4V113.6c2.6 1.3 5.7 2.3 9.3 3 3.6.6 7.4 1 11.4 1 3.9 0 7.5-.4 10.9-1.2 3.4-.8 6.3-2.1 8.8-3.9 2.5-1.8 4.4-4.1 5.8-6.9 1.4-2.8 2.1-6.2 2.1-10.2 0-2.9-.4-5.4-1.3-7.6-.9-2.2-2.1-4.1-3.6-5.8-1.6-1.7-3.4-3.1-5.5-4.4-2.1-1.3-4.4-2.5-6.8-3.5-1.8-.8-3.4-1.5-4.8-2.3-1.4-.7-2.6-1.5-3.5-2.3-.9-.8-1.7-1.6-2.2-2.5-.5-.9-.7-1.9-.7-3 0-1 .2-1.9.7-2.7.5-.8 1.1-1.5 2-2.1.9-.6 1.9-1 3.1-1.3 1.2-.3 2.6-.5 4-.5 1 0 2.1.1 3.2.2 1.1.2 2.3.4 3.4.8 1.1.3 2.2.8 3.3 1.3 1 .5 2 1.2 2.9 1.9V47.3c-2.1-.8-4.4-1.4-7-1.8-2.5-.4-5.4-.6-8.6-.6-3.8 0-7.4.4-10.7 1.3-3.3.9-6.2 2.2-8.6 4-2.4 1.8-4.3 4-5.7 6.7-1.4 2.7-2 5.8-2 9.4 0 4.7 1.4 8.8 4.2 12.2 2.8 3.4 7 6.3 12.4 8.5 1.8.8 3.5 1.5 5.1 2.3 1.5.8 2.9 1.5 4 2.4 1.1.8 2 1.7 2.7 2.7.6 1 1 2.1 1 3.4 0 .9-.2 1.8-.6 2.6-.4.8-1 1.5-1.9 2.1-.8.6-1.9 1-3.2 1.3-1.3.3-2.8.5-4.6.5-3 0-6-.5-8.9-1.6-2.9-1.1-5.5-2.7-7.8-4.8zM50 56.2H68V46H18v10.2h18V113h14V56.2z" fill="#fff"/>
</svg>
